<svg xmlns="http://www.w3.org/2000/svg" xmlns:xlink="http://www.w3.org/1999/xlink" 
viewBox="0 0 2357.73 2357.73">
<defs><style>.cls-1{fill-rule:evenodd;filter:url(#luminosity-noclip);}.cls-2{fill:none;}.cls-3{mask:url(#mask);}.cls-4{fill:#f05034;}</style><filter id="luminosity-noclip" x="80.79" y="80.79" width="2196.16" height="2196.16" filterUnits="userSpaceOnUse" color-interpolation-filters="sRGB"><feFlood flood-color="#fff" result="bg"/><feBlend in="SourceGraphic" in2="bg"/></filter><mask id="mask" x="80.79" y="80.79" width="2196.16" height="2196.16" maskUnits="userSpaceOnUse"><path class="cls-1" d="M221.73,768H368.26V914.57H221.73Zm0,210.78H368.26v146.53H221.73Zm219.44,0H587.7v146.53H441.17Zm0-210.78H587.7V914.57H441.17Z"/></mask></defs><g id="Calque_2" data-name="Calque 2"><g id="Layer_1" data-name="Layer 1"><rect class="cls-2" width="2357.73" height="2357.73"/><g class="cls-3"><path class="cls-4" d="M96,664.46,1062.79,80.79Q819.13,1169,81,2257.11h-.18V687.38C80.79,678.64,86.3,670.31,96,664.46Z"/><path class="cls-4" d="M2277,687.41V2257.13h-.19Q1538.63,1169,1295,80.79l392.8,237.13V173.85h405.33V562.63l168.75,101.86C2271.43,670.34,2277,678.67,2277,687.41Z"/><path class="cls-4" d="M182.58,2277H142.75Q860.44,1181.49,1078.8,86h3.56Q872.46,1181.49,182.58,2277Z"/><path class="cls-4" d="M2198.35,2277h-39.83Q1468.64,1181.49,1258.75,86h3.55Q1480.67,1181.49,2198.35,2277Z"/><path class="cls-4" d="M1175.08,140.33H1166q.3-29.79.55-59.54h8Q1174.8,110.58,1175.08,140.33Z"/><path class="cls-4" d="M1210.62,2095.25h-80.14q1.65-61.12,3.25-122.19h73.65Q1209,2034.14,1210.62,2095.25Zm-6.35-244.37h-67.44q1.53-61.1,3-122.19h61.5Q1202.76,1789.8,1204.27,1850.88Zm-5.81-244.37h-55.81q1.36-61.1,2.68-122.17h50.43Q1197.08,1545.39,1198.46,1606.51Zm-5.25-244.35h-45.3q1.24-61.08,2.42-122.19h40.44Q1192,1301.05,1193.21,1362.16Zm-4.72-244.37h-35.87q1.13-61.12,2.15-122.19h31.56Q1187.37,1056.68,1188.49,1117.79Zm-4.18-244.37H1156.8q1-61.08,1.87-122.19h23.77Q1183.34,812.34,1184.31,873.42Zm-3.62-244.35h-20.27q.82-61.11,1.61-122.19h17Q1179.86,568,1180.69,629.07Zm-3.08-244.37H1163.5q.7-61.08,1.33-122.21h11.45Q1176.91,323.65,1177.61,384.7ZM1214,2217.43H1127.1q-.84,29.76-1.7,59.52h90.3Q1214.85,2247.22,1214,2217.43Z"/><path class="cls-4" d="M909.1,1692.77q-26.58,129.66-55.85,259.32H698.56q43.55-129.64,83.08-259.32H708.19c70-67,131.89-134.06,186.43-201.07a1373.12,1373.12,0,0,0,87.93,201.07ZM1109.05,603.28c-9.3-67-14.81-134-17.42-201.08a1726.85,1726.85,0,0,1-72.37,201.08h24Q1020.55,733,993.81,862.61h57.92q18-129.65,33.27-259.33Zm141.88,58.25a1658.24,1658.24,0,0,0,85.15,201.08,1834.56,1834.56,0,0,0,12-201.08h-26q-26-129.66-47.63-259.33h-30.93q15.18,129.66,33.44,259.33ZM1408.08,1751c60,67,127.92,134,204.49,201.07A1260.32,1260.32,0,0,0,1695.12,1751h-76.86q-44.48-129.66-84.58-259.32H1425.53q28.15,129.63,59.39,259.32Z"/></g></g></g></svg>